<svg width="24" height="25" viewBox="0 0 24 25" fill="none" xmlns="http://www.w3.org/2000/svg">
<path d="M21.7963 21.0042L17.3441 16.5502C18.679 14.8106 19.3023 12.6284 19.0874 10.4462C18.8725 8.26406 17.8356 6.24532 16.1871 4.79953C14.5385 3.35374 12.4018 2.58915 10.2102 2.66088C8.01865 2.7326 5.93644 3.63526 4.38595 5.18575C2.83546 6.73624 1.9328 8.81846 1.86107 11.01C1.78935 13.2016 2.55393 15.3383 3.99972 16.9869C5.44552 18.6354 7.46426 19.6723 9.64643 19.8872C11.8286 20.1021 14.0108 19.4788 15.7504 18.1439L20.2063 22.6008C20.3109 22.7054 20.4352 22.7884 20.5719 22.8451C20.7086 22.9017 20.8552 22.9309 21.0032 22.9309C21.1512 22.9309 21.2977 22.9017 21.4344 22.8451C21.5712 22.7884 21.6954 22.7054 21.8 22.6008C21.9047 22.4961 21.9877 22.3719 22.0443 22.2352C22.101 22.0985 22.1301 21.9519 22.1301 21.8039C22.1301 21.6559 22.101 21.5094 22.0443 21.3726C21.9877 21.2359 21.9047 21.1117 21.8 21.007L21.7963 21.0042ZM4.12536 11.3002C4.12536 10.0393 4.49925 8.80677 5.19974 7.7584C5.90024 6.71004 6.89587 5.89294 8.06075 5.41043C9.22563 4.92792 10.5074 4.80168 11.7441 5.04766C12.9807 5.29364 14.1166 5.9008 15.0082 6.79236C15.8997 7.68392 16.5069 8.81984 16.7529 10.0565C16.9988 11.2931 16.8726 12.5749 16.3901 13.7398C15.9076 14.9047 15.0905 15.9003 14.0421 16.6008C12.9938 17.3013 11.7612 17.6752 10.5004 17.6752C8.81014 17.6734 7.18964 17.0012 5.99447 15.8061C4.7993 14.6109 4.1271 12.9904 4.12536 11.3002Z" fill="black" fill-opacity="0.4"/>
</svg>
