<svg width="75" height="76" viewBox="0 0 75 76" fill="none" xmlns="http://www.w3.org/2000/svg">
<rect x="0.935391" y="1.73544" width="72.9605" height="72.9605" rx="36.4803" stroke="url(#paint0_linear_1_28)" stroke-width="1.87078"/>
<g clip-path="url(#clip0_1_28)">
<path d="M37.2557 34.9106C39.2512 34.9106 40.9474 34.1955 42.3443 32.7654C43.7411 31.3353 44.4395 29.6225 44.4395 27.627C44.4395 25.6315 43.7411 23.9353 42.3443 22.5385C40.9474 21.1416 39.2512 20.4432 37.2557 20.4432C35.2602 20.4432 33.5641 21.1416 32.1672 22.5385C30.7704 23.9353 30.0719 25.6315 30.0719 27.627C30.0719 29.6225 30.7704 31.3353 32.1672 32.7654C33.5641 34.1955 35.2602 34.9106 37.2557 34.9106ZM33.3645 23.8356C34.4288 22.7713 35.7092 22.2392 37.2058 22.2392C38.7025 22.2392 39.9995 22.7713 41.0971 23.8356C42.1946 24.8998 42.7434 26.1803 42.7434 27.6769C42.7434 29.1735 42.2112 30.454 41.147 31.5182C40.0827 32.5825 38.7856 33.1146 37.2557 33.1146C35.7258 33.1146 34.4288 32.5825 33.3645 31.5182C32.3002 30.454 31.7681 29.1735 31.7681 27.6769C31.7681 26.1803 32.3002 24.8998 33.3645 23.8356ZM49.8274 43.4913C49.8274 42.8926 49.7609 42.2441 49.6278 41.5456C49.4948 40.8472 49.3285 40.2153 49.129 39.6499C48.9294 39.0845 48.6633 38.5025 48.3308 37.9038C47.9982 37.3052 47.6157 36.7897 47.1834 36.3573C46.751 35.925 46.2022 35.5758 45.5371 35.3097C44.8719 35.0436 44.1402 34.9106 43.342 34.9106C43.0759 34.9106 42.6768 35.0769 42.1447 35.4095L40.9474 36.2077C40.5483 36.4737 40.0162 36.7065 39.351 36.9061C38.6858 37.1056 38.0373 37.2054 37.4054 37.2054C36.7735 37.2054 36.1249 37.1056 35.4598 36.9061C34.7946 36.7065 34.2957 36.4737 33.9632 36.2077L32.6661 35.4095C32.2005 35.0769 31.8346 34.9106 31.5686 34.9106C30.7704 34.9106 30.0387 35.0436 29.3735 35.3097C28.7083 35.5758 28.1429 35.925 27.6773 36.3573C27.2117 36.7897 26.8126 37.3052 26.48 37.9038C26.1474 38.5025 25.8814 39.1011 25.6818 39.6998C25.4823 40.2985 25.3326 40.9304 25.2328 41.5955C25.1331 42.2607 25.0665 42.876 25.0333 43.4414C25 44.0068 24.9834 44.5888 24.9834 45.1874C24.9834 46.7838 25.4656 48.0476 26.4301 48.9789C27.3946 49.9101 28.6751 50.3757 30.2715 50.3757H44.6391C46.169 50.3757 47.4328 49.9101 48.4305 48.9789C49.4283 48.0476 49.9272 46.7838 49.9272 45.1874C49.9272 44.5888 49.8939 44.0234 49.8274 43.4913ZM47.2332 47.6818C46.5681 48.2805 45.7034 48.5798 44.6391 48.5798H30.2715C29.1407 48.5798 28.2593 48.2805 27.6274 47.6818C26.9955 47.0832 26.6796 46.2517 26.6796 45.1874L26.7793 43.591C26.7793 43.0589 26.8459 42.4935 26.9789 41.8949C27.1119 41.2962 27.245 40.7474 27.378 40.2486C27.511 39.7497 27.7106 39.2674 27.9767 38.8018C28.2427 38.3362 28.542 37.9537 28.8746 37.6544C29.2072 37.3551 29.5897 37.1223 30.022 36.956C30.4544 36.7897 30.9034 36.7065 31.369 36.7065L32.9654 37.7043C33.4975 38.0369 34.1627 38.3196 34.9609 38.5524C35.7591 38.7852 36.5739 38.9016 37.4054 38.9016C38.2369 38.9016 39.0683 38.7852 39.8998 38.5524C40.7312 38.3196 41.3798 38.0369 41.8454 37.7043L43.4418 36.7065C43.9739 36.7065 44.4562 36.7897 44.8885 36.956C45.3209 37.1223 45.6867 37.3551 45.9861 37.6544C46.2854 37.9537 46.5681 38.3362 46.8341 38.8018C47.1002 39.2674 47.3164 39.7497 47.4827 40.2486C47.649 40.7474 47.782 41.2962 47.8818 41.8949C47.9816 42.4935 48.0647 43.0589 48.1312 43.591V45.1874C48.1312 46.2517 47.8319 47.0832 47.2332 47.6818Z" fill="url(#paint1_linear_1_28)"/>
</g>
<defs>
<linearGradient id="paint0_linear_1_28" x1="0" y1="38.2157" x2="74.8313" y2="38.2157" gradientUnits="userSpaceOnUse">
<stop stop-color="white"/>
<stop offset="1" stop-color="#999999"/>
</linearGradient>
<linearGradient id="paint1_linear_1_28" x1="24.9834" y1="35.4095" x2="49.9272" y2="35.4095" gradientUnits="userSpaceOnUse">
<stop stop-color="white"/>
<stop offset="1" stop-color="#999999"/>
</linearGradient>
<clipPath id="clip0_1_28">
<rect width="29.839" height="29.9325" fill="white" transform="matrix(1 0 0 -1 22.4863 50.3757)"/>
</clipPath>
</defs>
</svg>
